# xmcd
#
# Track frame offsets:
#	150
#	23122
#	39892
#	76777
#	90177
#	106815
#	122858
#	135894
#	152214
#
# Disc length: 2458 seconds
#
# Revision: 0
# Processed by: cddbd v1.5.2PL0 Copyright (c) Steve Scherf et al.
# Submitted via: audiograbber 1.83.01
#
DISCID=56099809
DTITLE=The Chambers Brothers - So Fine
DYEAR=1900
DGENRE=Rock
TTITLE0=High Heel Sneakers
TTITLE1=Baby Please Don´t Go
TTITLE2=What´d I Say
TTITLE3=Long tall Sally
TTITLE4=Bony Maronie
TTITLE5=It´s Groovin´Time
TTITLE6=You Don´t Have To Go
TTITLE7=S.S. Rider
TTITLE8=So Fine 
EXTD=
EXTT0=
EXTT1=
EXTT2=
EXTT3=
EXTT4=
EXTT5=
EXTT6=
EXTT7=
EXTT8=
PLAYORDER=
